<svg width="118" height="184" viewBox="0 0 118 184" fill="none" xmlns="http://www.w3.org/2000/svg">
<path d="M44.5 74C47.5376 74 50 71.5376 50 68.5C50 65.4624 47.5376 63 44.5 63C41.4624 63 39 65.4624 39 68.5C39 71.5376 41.4624 74 44.5 74Z" fill="black"/>
<path d="M73.5 74C76.5376 74 79 71.5376 79 68.5C79 65.4624 76.5376 63 73.5 63C70.4624 63 68 65.4624 68 68.5C68 71.5376 70.4624 74 73.5 74Z" fill="black"/>
<path d="M59 96C62.8659 96 66 92.4182 66 88H52C52 92.4182 55.1341 96 59 96Z" fill="black"/>
<path d="M105.466 135.522C106.617 136.147 108.029 136.147 109.143 135.485C110.294 134.824 111 133.648 111 132.324V50.9816C111 22.8626 87.8972 0 59.4829 0H58.5171C30.1027 0 7 22.8626 7 50.9816V132.324C7 133.648 7.7429 134.861 8.89432 135.522C9.45133 135.853 10.0829 136 10.7143 136C11.3828 136 12.0514 135.816 12.6458 135.449C13.4628 134.971 29.7686 124.899 34.1514 108.285C40.6886 114.093 49.2686 117.622 58.6656 117.622H59.3344C67.6915 117.622 75.3799 114.828 81.5829 110.16C84.9628 123.944 104.426 134.934 105.466 135.522ZM88.7143 81.1955C88.7143 97.2217 75.5286 110.27 59.3344 110.27H58.6656C42.4714 110.27 29.2857 97.2217 29.2857 81.1955V62.1556C29.2857 56.973 30.7343 51.9741 33.3344 47.5633C34.6343 47.6 35.9342 47.6734 37.16 47.6734C50.2715 47.6734 59.26 44.9902 65.5372 41.4615C65.76 41.7188 66.0201 41.9762 66.2429 42.2335L66.5771 42.5642C67.4687 43.4831 68.3973 44.3286 69.3258 45.1004C69.4371 45.2108 69.5856 45.3209 69.7343 45.4313C70.6629 46.1665 71.5915 46.8281 72.5201 47.4161C72.6314 47.4897 72.7429 47.5633 72.8542 47.6366C73.82 48.2616 74.7857 48.7761 75.7143 49.2174C75.7886 49.2539 75.8258 49.2539 75.8628 49.2907C79.9858 51.2389 83.8486 51.9373 86.8943 52.1211C88.1201 55.3557 88.7143 58.7004 88.7143 62.1556V81.1955Z" fill="black"/>
<path d="M59.3344 125.439H58.6656C53.6886 125.439 48.7857 124.589 44.1429 123V125.439H33V145.466L43.0658 151.083C47.5971 153.596 53.2057 155 58.8885 155C64.7943 155 70.4029 153.596 74.9342 151.083L85 145.466V125.439H73.8571V123C69.2143 124.626 64.3486 125.439 59.3344 125.439Z" fill="black"/>
<path d="M118 180.333V162H103V184H114.25C116.312 184 118 182.35 118 180.333Z" fill="black"/>
<path d="M3.75 184H15V162H0V180.333C0 182.35 1.68755 184 3.75 184Z" fill="black"/>
<path d="M22.125 158.249V184H95.875V158.249C95.875 156.226 97.5344 154.571 99.5625 154.571H118V150.892C118 146.845 117.078 143.019 115.345 139.598C114.571 140.555 113.575 141.401 112.469 142.026C110.883 142.983 108.929 143.535 106.938 143.535C105.094 143.535 103.213 143.056 101.591 142.137C100.116 141.327 96.3913 139.12 92.1875 135.809V147.213C92.1875 148.538 91.4869 149.752 90.3068 150.414L78.4332 157.072C72.7912 160.236 66.0799 161.928 59.1107 161.928C51.9201 161.928 45.2088 160.236 39.5668 157.072L27.6932 150.414C26.5131 149.752 25.8125 148.538 25.8125 147.213V135C21.0924 139.378 17.1101 141.769 16.7412 141.953C15.1187 142.946 13.1275 143.535 11.0625 143.535C9.07133 143.535 7.15376 143.019 5.45743 142.026C4.38813 141.401 3.39244 140.555 2.65489 139.598C0.921875 143.019 0 146.845 0 150.892V154.571H18.4375C20.4656 154.571 22.125 156.226 22.125 158.249Z" fill="black"/>
</svg>
