<svg width="117" height="116" viewBox="0 0 117 116" fill="none" xmlns="http://www.w3.org/2000/svg">
<path d="M116.937 114.354L103.794 77.7363C103.757 77.6352 103.698 77.5446 103.622 77.4714C103.546 77.3983 103.456 77.3446 103.358 77.3144L71.0654 68.6194V65.1903C72.5867 64.4064 73.8811 63.2032 74.8132 61.7069C75.4463 60.506 75.8804 59.1989 76.0966 57.8424C76.0966 57.5022 76.2378 57.162 76.3148 56.8219C76.9566 54.1004 77.8422 48.6575 78.0989 47.1335C79.9984 45.3237 81.115 42.3709 81.3717 38.2479C81.3717 35.1726 80.499 33.322 79.177 33.3084C78.8658 33.3104 78.5638 33.4203 78.3171 33.6214C78.7791 31.6756 80.4733 24.4637 80.4476 20.5448C80.4671 20.1323 80.4671 19.719 80.4476 19.3065C80.0342 16.9792 79.1593 14.7714 77.8807 12.8294C77.2774 11.7817 76.5972 10.7611 75.9041 9.64534L78.6379 9.26434C75.5576 7.27767 72.734 5.41347 69.8847 3.6037C66.1184 1.11602 61.7419 -0.133942 57.3066 0.0113731C51.2102 0.256305 46.6153 2.61037 43.5607 7.23685L43.227 7.78114C43.227 7.78114 42.7649 7.94443 42.5724 8.03968C40.3587 9.10674 38.534 10.9108 37.3757 13.1777C36.2174 15.4446 35.7888 18.0505 36.155 20.5992C36.6556 24.1643 37.5155 30.5053 37.8492 33.0363C37.7053 32.9809 37.5531 32.9532 37.4 32.9546C36.1165 32.9546 35.2566 34.8188 35.2053 37.9485C35.4748 42.1396 36.6299 45.1468 38.645 46.9429C38.645 47.1879 38.7091 47.4328 38.7477 47.6777L39.184 56.8899C39.1913 58.1474 39.4724 59.3861 40.0055 60.5094C40.8056 61.6783 41.8934 62.5915 43.15 63.1492L45.5372 64.51V68.5922L13.2836 77.3008C13.1819 77.328 13.0885 77.3823 13.0121 77.4585C12.9357 77.5347 12.879 77.6303 12.8472 77.7363L0.0381757 114.354C-0.0196208 114.523 -0.0115298 114.71 0.0606706 114.873C0.132871 115.037 0.263273 115.163 0.423217 115.224C0.495435 115.237 0.569189 115.237 0.641407 115.224C0.771772 115.225 0.899325 115.184 1.00709 115.106C1.11485 115.029 1.19771 114.918 1.24464 114.789L7.55931 96.7865L20.394 103.209V115.32C20.394 115.5 20.4616 115.673 20.582 115.801C20.7023 115.928 20.8656 116 21.0358 116H94.8225C94.9927 116 95.1559 115.928 95.2763 115.801C95.3966 115.673 95.4642 115.5 95.4642 115.32V104.189L109.775 98.0112L115.807 114.83C115.856 114.958 115.939 115.067 116.046 115.145C116.154 115.222 116.281 115.264 116.41 115.265C116.483 115.279 116.557 115.279 116.629 115.265C116.706 115.227 116.775 115.173 116.832 115.107C116.889 115.04 116.934 114.962 116.962 114.878C116.991 114.793 117.004 114.703 116.999 114.613C116.995 114.523 116.974 114.435 116.937 114.354ZM53.9439 49.5556L54.0338 49.6644C54.293 50.0113 54.6546 50.2557 55.0606 50.3584C55.2311 50.3792 55.4034 50.3792 55.574 50.3584C56.185 50.3247 56.7891 50.2058 57.3708 50.0046C57.7578 49.8666 58.1582 49.7753 58.5644 49.7324H58.8725L59.0393 49.8141L59.219 49.9093C60.2948 50.3597 61.4797 50.4266 62.5945 50.0998H62.8512L63.3261 49.991L66.1369 52.1545C65.8546 55.4611 64.8534 57.7471 63.1208 58.6044C62.3921 58.9289 61.5949 59.0407 60.8117 58.9282C60.0286 58.8158 59.2881 58.4831 58.6671 57.9649L58.3719 57.7471L58.0382 57.9104C55.9975 58.9174 54.3547 59.0671 53.161 58.3459C51.7107 57.4886 50.7609 55.2842 50.3374 51.8008L53.7129 49.5964L53.9439 49.5556ZM79.1256 34.6692C79.3567 34.6692 80.0112 35.5672 80.0626 38.2207C80.0377 40.7023 79.3332 43.1227 78.0347 45.1876V38.1254C78.1117 35.6897 78.8561 34.6692 79.1256 34.6692ZM40.0311 33.3084C39.6642 30.3048 40.2706 27.2581 41.751 24.6678C42.3256 23.4436 43.154 22.3731 44.1742 21.5365C45.1945 20.7 46.38 20.119 47.6421 19.8372C48.3759 19.5719 49.1767 19.6058 49.8882 19.9325C52.3863 21.9959 55.3193 23.3859 58.4356 23.9831C61.5519 24.5804 64.7583 24.3671 67.7798 23.3615C68.0236 23.2799 68.6525 22.9941 68.6525 22.9941C68.6525 22.9941 67.7156 22.6539 67.5487 22.5723C67.2271 22.4181 66.918 22.2361 66.6246 22.028C66.2473 21.7835 65.9283 21.4501 65.6923 21.0536C65.4563 20.6571 65.3098 20.2083 65.2642 19.742H66.1112C68.271 19.7569 70.3768 20.4585 72.1564 21.7558C76.9566 25.6883 76.1993 34.0024 76.1993 34.0024H76.6229C76.6096 34.0789 76.6096 34.1573 76.6229 34.2337V43.4459C76.6128 44.5126 76.527 45.5769 76.3662 46.63C74.728 47.9538 72.6799 48.5756 70.6291 48.3717C69.253 48.176 67.9015 47.8201 66.599 47.3103C64.9545 46.6494 63.2218 46.2682 61.4651 46.1809C61.6691 45.9537 61.8538 45.7078 62.017 45.4461C62.1123 45.2964 62.1476 45.1126 62.1151 44.9352C62.0826 44.7579 61.985 44.6015 61.8437 44.5004C61.7024 44.3994 61.5291 44.362 61.3618 44.3964C61.1945 44.4309 61.047 44.5344 60.9517 44.6841C60.6899 45.2129 60.297 45.6558 59.8152 45.9652C59.3334 46.2745 58.7811 46.4385 58.2179 46.4395C57.756 46.3998 57.3129 46.2283 56.9356 45.9432C56.5582 45.6582 56.2607 45.2701 56.0745 44.8202C56.0423 44.7303 55.9925 44.6487 55.9284 44.5807C55.8643 44.5128 55.7873 44.46 55.7025 44.4258C55.6177 44.3917 55.5271 44.377 55.4366 44.3827C55.346 44.3884 55.2577 44.4143 55.1773 44.4589C55.097 44.5034 55.0264 44.5655 54.9703 44.6411C54.9142 44.7166 54.8739 44.8039 54.8519 44.8972C54.83 44.9905 54.8269 45.0876 54.843 45.1822C54.859 45.2769 54.8938 45.3668 54.9451 45.4461C55.0863 45.7308 55.254 45.9997 55.4456 46.249C53.7248 46.357 52.0289 46.7377 50.4144 47.3784C49.1119 47.8881 47.7604 48.244 46.3843 48.4398C44.4976 48.6303 41.0579 46.8341 39.6974 46.004V37.7172C39.685 37.1869 39.6291 36.6588 39.5306 36.1388V34.4651C39.5282 34.3435 39.4926 34.2253 39.4279 34.1249H40.1466C40.1466 34.1249 40.0568 33.4581 40.0311 33.254V33.3084ZM36.3604 37.9213C36.3604 35.1999 37.0663 34.3154 37.2973 34.3154C37.5027 34.3154 37.9647 34.8869 38.2343 36.1932V43.5683C38.2343 43.9357 38.2343 44.3031 38.2343 44.6705C37.044 42.6425 36.3963 40.3096 36.3604 37.9213V37.9213ZM53.0455 68.5786C54.6317 69.4983 56.379 70.0633 58.1794 70.2387H58.4361C61.161 70.1054 63.81 69.2442 66.1369 67.7349C66.7915 67.3811 67.4204 67.0137 68.152 66.6735L68.7295 66.4014L69.8076 65.8707V68.7418C61.8373 73.5316 54.329 73.5316 46.872 68.7418V65.1767L53.0455 68.5786ZM95.4001 102.787V91.6701C95.4001 91.4897 95.3324 91.3166 95.2121 91.1891C95.0918 91.0615 94.9285 90.9898 94.7583 90.9898C94.5881 90.9898 94.4249 91.0615 94.3045 91.1891C94.1842 91.3166 94.1166 91.4897 94.1166 91.6701V114.639H21.6518C21.6518 114.639 21.6518 114.544 21.6518 114.49V91.7926C21.6485 91.6133 21.5799 91.4422 21.4602 91.3154C21.3406 91.1885 21.1793 91.1157 21.0101 91.1123C20.8399 91.1123 20.6767 91.1839 20.5563 91.3115C20.436 91.4391 20.3684 91.6122 20.3684 91.7926V101.726L7.99569 95.4938L13.9253 78.5391L46.1148 69.8713C49.7044 72.293 53.8608 73.6032 58.1152 73.6541C62.4912 73.5683 66.7683 72.2587 70.5136 69.8576L102.716 78.5391L109.249 96.7865L95.4001 102.787ZM65.2257 34.7508C65.0934 34.8631 65.0084 35.0262 64.9892 35.2046C64.97 35.3831 65.018 35.5623 65.123 35.7033C65.1885 35.7895 65.2733 35.8571 65.3697 35.8998C65.466 35.9426 65.5709 35.9592 65.6749 35.9483C65.7497 36.4324 65.9844 36.8725 66.337 37.1902C66.6897 37.5078 67.1373 37.6821 67.6001 37.6821C68.0628 37.6821 68.5105 37.5078 68.8631 37.1902C69.2158 36.8725 69.4505 36.4324 69.5253 35.9483C69.5253 35.9483 69.5253 35.9483 69.5253 35.8666C69.5956 35.9117 69.6745 35.9396 69.7563 35.9483C69.8594 35.95 69.9613 35.9249 70.0531 35.875C70.1448 35.8252 70.2236 35.7522 70.2825 35.6625C70.3318 35.5894 70.3669 35.5066 70.3858 35.419C70.4047 35.3315 70.4071 35.2408 70.3927 35.1522C70.3784 35.0637 70.3477 34.979 70.3024 34.9031C70.257 34.8272 70.1979 34.7616 70.1285 34.71C69.4274 34.0868 68.5399 33.7487 67.6251 33.7562C66.7102 33.7637 65.8278 34.1163 65.1358 34.7508H65.2257ZM67.6129 36.6558C67.484 36.6532 67.3588 36.6102 67.2528 36.5323C67.1469 36.4545 67.065 36.3452 67.0174 36.2181C66.9698 36.0911 66.9587 35.952 66.9854 35.8183C67.012 35.6846 67.0754 35.5622 67.1674 35.4665C67.2594 35.3708 67.3761 35.3061 67.5027 35.2804C67.6293 35.2547 67.7602 35.2692 67.8791 35.3221C67.998 35.375 68.0995 35.464 68.1708 35.5778C68.2422 35.6916 68.2803 35.8252 68.2803 35.9619C68.2815 36.0629 68.2618 36.163 68.2227 36.2552C68.1836 36.3474 68.126 36.4294 68.0539 36.4955C67.9817 36.5616 67.8969 36.6102 67.8052 36.6379C67.7135 36.6656 67.6172 36.6717 67.5231 36.6558H67.6129ZM47.2827 34.5739C47.2158 34.6284 47.1599 34.6966 47.1183 34.7744C47.0768 34.8523 47.0505 34.9382 47.0409 35.0271C47.0313 35.116 47.0387 35.206 47.0626 35.2918C47.0865 35.3775 47.1264 35.4574 47.1801 35.5264C47.2549 35.6298 47.3573 35.7071 47.4739 35.7484C47.5906 35.7896 47.7162 35.7929 47.8346 35.7578C47.9094 36.2419 48.1441 36.682 48.4968 36.9997C48.8494 37.3173 49.2971 37.4916 49.7598 37.4916C50.2226 37.4916 50.6702 37.3173 51.0229 36.9997C51.3755 36.682 51.6102 36.2419 51.685 35.7578V35.7578H51.8006C51.9031 35.7562 52.0039 35.7296 52.0951 35.68C52.1864 35.6305 52.2657 35.5593 52.3268 35.472C52.376 35.3989 52.4111 35.3161 52.43 35.2285C52.4489 35.141 52.4513 35.0503 52.437 34.9617C52.4227 34.8732 52.392 34.7885 52.3466 34.7126C52.3012 34.6367 52.2422 34.5711 52.1728 34.5195C51.4779 33.9267 50.6104 33.6081 49.7186 33.618C48.8267 33.6279 47.9657 33.9658 47.2827 34.5739ZM49.7727 36.4381C49.6438 36.4354 49.5185 36.3925 49.4126 36.3146C49.3066 36.2367 49.2247 36.1274 49.1771 36.0004C49.1296 35.8734 49.1184 35.7343 49.1451 35.6006C49.1718 35.4669 49.2351 35.3445 49.3272 35.2488C49.4192 35.1531 49.5358 35.0884 49.6624 35.0627C49.7891 35.037 49.92 35.0515 50.0389 35.1044C50.1577 35.1573 50.2592 35.2462 50.3306 35.36C50.402 35.4739 50.44 35.6075 50.4401 35.7441C50.4401 35.8364 50.4227 35.9278 50.389 36.0129C50.3553 36.098 50.306 36.1751 50.2438 36.2397C50.1817 36.3044 50.108 36.3552 50.0271 36.3892C49.9462 36.4233 49.8597 36.4399 49.7727 36.4381ZM51.4027 52.3859C51.4092 52.2089 51.4793 52.0413 51.5986 51.9173C51.7179 51.7934 51.8774 51.7225 52.0444 51.7191V51.7191L64.3914 51.8552C64.5616 51.8552 64.7248 51.9269 64.8452 52.0545C64.9655 52.1821 65.0331 52.3551 65.0331 52.5356C65.0331 52.716 64.9655 52.889 64.8452 53.0166C64.7248 53.1442 64.5616 53.2159 64.3914 53.2159L52.0187 53.0798C51.8508 53.0728 51.6922 52.9961 51.577 52.8663C51.4618 52.7365 51.3992 52.564 51.4027 52.3859ZM60.5923 57.3934C60.5001 57.5442 60.3562 57.6512 60.191 57.6918C60.0258 57.7324 59.8522 57.7035 59.7067 57.6111C59.2323 57.3074 58.6887 57.1469 58.1345 57.1469C57.5803 57.1469 57.0366 57.3074 56.5622 57.6111C56.4753 57.6594 56.378 57.6828 56.2799 57.6791C56.1589 57.6827 56.0397 57.6485 55.937 57.5808C55.8343 57.513 55.7527 57.4147 55.7023 57.2981C55.6295 57.1368 55.6183 56.952 55.6709 56.7822C55.7235 56.6123 55.8359 56.4706 55.9847 56.3864C56.6499 55.9644 57.4106 55.7415 58.1858 55.7415C58.961 55.7415 59.7217 55.9644 60.387 56.3864C60.4664 56.4348 60.5353 56.5003 60.5894 56.5787C60.6434 56.6571 60.6813 56.7466 60.7007 56.8415C60.7201 56.9364 60.7204 57.0346 60.7017 57.1296C60.6831 57.2247 60.6458 57.3145 60.5923 57.3934V57.3934ZM63.57 30.6414C63.5163 30.4699 63.5278 30.283 63.6021 30.1203C63.6764 29.9577 63.8076 29.8322 63.9679 29.7705C67.5102 28.4098 70.1927 28.8044 71.9382 30.9272C71.9984 30.9904 72.0461 31.0657 72.0787 31.1486C72.1113 31.2315 72.128 31.3204 72.128 31.4102C72.128 31.5 72.1113 31.589 72.0787 31.6719C72.0461 31.7548 71.9984 31.83 71.9382 31.8933C71.8181 31.9962 71.6691 32.0537 71.5147 32.0566C71.4227 32.0557 71.3319 32.0347 71.248 31.9949C71.1641 31.9551 71.0888 31.8973 71.0269 31.8252C69.6023 30.1107 67.4204 29.893 64.4042 31.0496C64.3243 31.0821 64.239 31.0972 64.1534 31.0942C64.0678 31.0911 63.9837 31.07 63.9059 31.0319C63.8282 30.9939 63.7584 30.9398 63.7007 30.8727C63.643 30.8056 63.5986 30.727 63.57 30.6414V30.6414ZM45.4217 31.8116C45.3616 31.7484 45.3138 31.6731 45.2812 31.5902C45.2486 31.5073 45.2319 31.4184 45.2319 31.3286C45.2319 31.2388 45.2486 31.1498 45.2812 31.0669C45.3138 30.984 45.3616 30.9088 45.4217 30.8455C47.1287 28.75 49.8112 28.3418 53.3022 29.6889C53.4624 29.7506 53.5936 29.8761 53.6679 30.0387C53.7422 30.2013 53.7538 30.3883 53.7001 30.5598C53.6422 30.7293 53.5231 30.8676 53.3691 30.9441C53.215 31.0207 53.0387 31.0293 52.8787 30.968C49.824 29.8114 47.6806 30.0563 46.2945 31.7436C46.1809 31.8786 46.0221 31.9613 45.8519 31.974C45.6817 31.9867 45.5135 31.9285 45.3832 31.8116H45.4217Z" fill="black"/>
</svg>
