<svg width="156" height="197" viewBox="0 0 156 197" fill="none" xmlns="http://www.w3.org/2000/svg">
<path d="M155.612 188.082L150.22 167.966C146.695 154.071 135.081 143.909 120.979 142.043L108.328 140.384L104.595 129.599C114.757 122.548 122.43 111.557 125.541 98.2841C129.067 96.4177 134.874 91.6478 134.874 79.6194C134.874 70.9091 133.422 65.7245 130.519 62.8211C128.652 60.7472 126.371 60.1251 124.712 59.9177C126.163 51.0001 127.408 40.4234 127.2 33.787C126.786 20.0995 120.149 11.3893 109.573 14.7075C94.6407 4.75293 73.0726 -3.12775 48.601 1.22736C49.0158 2.67906 50.4674 7.03418 50.8822 9.31542C42.3794 5.37509 35.3283 6.20463 35.3283 6.20463C35.3283 6.20463 31.3879 16.5739 34.7061 27.5654C32.6322 33.787 31.1805 47.8893 31.5953 59.9177C29.9362 60.1251 27.4476 60.5398 25.5811 62.6137C22.4703 65.5171 21.0186 70.9091 21.0186 79.6194C21.0186 91.6478 26.8254 96.4177 30.351 98.2841C33.4618 111.557 41.1351 122.341 51.297 129.392L47.564 140.384L34.9135 142.043C20.6038 143.909 9.19758 154.071 5.67201 167.966L0.279972 188.082C-0.342187 190.364 0.0725843 192.645 1.52429 194.304C2.76861 196.17 5.04985 197 7.12372 197H148.561C150.842 197 152.916 195.963 154.161 194.304C155.612 192.438 156.027 190.156 155.612 188.082ZM37.8169 94.3438C37.6095 92.6847 36.1578 91.4404 34.7061 91.0256C34.0839 90.8182 29.1067 89.1591 29.1067 79.412C29.1067 70.9091 30.5584 68.8353 31.3879 68.2131C31.3879 68.2131 31.8027 68.2131 32.0101 68.0057C32.2175 70.4944 32.6322 72.5682 33.047 74.4347C33.2544 75.2643 34.0839 75.8864 34.9135 75.8864H38.2317C39.476 75.8864 40.3055 74.8495 40.0981 73.8126C39.6834 68.4205 39.2686 54.1109 46.9419 42.0825C57.726 46.8523 78.672 56.1847 108.328 42.2898C116.002 52.4518 115.794 68.2131 115.379 73.8126C115.379 74.8495 116.209 75.8864 117.246 75.8864H119.942C120.979 75.8864 121.808 75.2643 121.808 74.2273C122.016 72.7756 122.43 70.4944 123.053 67.7984C123.467 67.7984 124.09 67.7984 124.297 68.2131C124.712 68.6279 126.371 70.7018 126.371 79.2046C126.371 88.9518 121.186 90.6108 120.771 90.8182C119.112 91.233 117.868 92.4773 117.661 94.1364C113.72 114.668 97.1294 129.599 77.6351 129.599C58.5555 129.807 41.7572 114.875 37.8169 94.3438ZM78.0498 138.102C84.8936 138.102 91.3225 136.443 97.3368 133.54L101.07 144.324C87.1748 154.486 68.5101 154.486 54.6152 144.324L58.3481 133.54C64.3623 136.236 70.9987 138.102 78.0498 138.102Z" fill="black"/>
<path d="M62.9106 80.6563C66.9194 80.6563 70.1691 77.4066 70.1691 73.3978C70.1691 69.389 66.9194 66.1393 62.9106 66.1393C58.9018 66.1393 55.6521 69.389 55.6521 73.3978C55.6521 77.4066 58.9018 80.6563 62.9106 80.6563Z" fill="black"/>
<path d="M92.9817 80.6563C96.9904 80.6563 100.24 77.4066 100.24 73.3978C100.24 69.389 96.9904 66.1393 92.9817 66.1393C88.9729 66.1393 85.7231 69.389 85.7231 73.3978C85.7231 77.4066 88.9729 80.6563 92.9817 80.6563Z" fill="black"/>
<path d="M57.726 91.6478C56.8965 92.6847 56.4817 93.9291 56.6891 95.1734C57.9334 105.75 67.0584 113.838 77.8425 113.838C88.6266 113.838 97.7516 105.75 98.9959 95.1734C99.2033 93.9291 98.7885 92.6847 97.959 91.6478C97.1294 90.6109 95.8851 90.1961 94.6408 90.1961H61.2516C59.7999 90.1961 58.5556 90.8183 57.726 91.6478ZM92.9817 99.1137H62.7033C62.0811 97.8694 61.459 96.4177 61.2516 94.966H94.4334C94.0186 96.4177 93.3965 97.8694 92.9817 99.1137Z" fill="black"/>
</svg>
