<svg width="117" height="114" viewBox="0 0 117 114" fill="none" xmlns="http://www.w3.org/2000/svg">
<path d="M36.0813 30.7174C35.6221 31.2954 35.342 32.0025 35.342 32.7753C35.342 34.7002 37.0249 36.2605 39.101 36.2605C40.1359 36.2605 41.0724 35.8722 41.7522 35.2449C44.9435 41.3388 51.6624 45.5504 59.4596 45.5504C67.5667 45.5504 74.524 41.0061 77.5449 34.5175C78.196 35.5551 79.3948 36.2605 80.7828 36.2605C82.8588 36.2605 84.5419 34.7002 84.5419 32.7753C84.5419 31.9887 84.2503 31.2709 83.776 30.6876C85.3659 30.0385 86.4789 28.5695 86.4789 26.8555C86.4789 24.5412 84.4553 22.6651 81.9591 22.6651C80.7268 22.6651 79.6124 23.1251 78.797 23.8665C77.881 19.3938 75.2044 15.5099 71.4622 12.8348L71.4836 12.8199C68.2994 9.96001 68.1481 6.98227 68.1481 6.98227L68.1421 6.98407C67.8566 3.49872 64.9407 1.39677 62.2786 0.199133C60.5787 -0.565502 58.7491 1.00538 59.4237 2.64164C59.5145 2.86189 59.5799 3.09588 59.5672 3.33136C59.3983 6.47336 53.4697 9.63463 50.9646 10.8344C50.6201 10.9876 50.2734 11.1363 49.9403 11.3072C49.8939 11.3274 49.8537 11.3446 49.8537 11.3446L49.8753 11.3438C45.0464 13.8442 41.4772 18.1717 40.2447 23.3201C39.5466 22.9108 38.7252 22.6651 37.8381 22.6651C35.3419 22.6651 33.3184 24.5412 33.3184 26.8555C33.3184 28.5921 34.4578 30.0818 36.0813 30.7174ZM59.4596 43.5215C52.4913 43.5215 46.4787 39.7179 43.663 34.2408C44.9928 33.5353 46.2367 32.817 47.3991 32.0895C48.5841 32.9809 50.0929 33.5169 51.7378 33.5169C55.2903 33.5169 58.2128 31.0249 58.5882 27.8238H60.9203C61.4457 30.8702 64.2848 33.2003 67.7186 33.2003C71.5257 33.2003 74.612 30.3389 74.612 26.8091C74.612 23.2794 71.5257 20.4179 67.7186 20.4179C64.2847 20.4179 61.4455 22.7485 60.9202 25.7949H58.4792C58.3021 25.02 57.9714 24.2987 57.5215 23.6555C61.2286 19.4136 62.8493 15.5803 63.5494 13.2281C65.8237 15.8103 69.8283 19.3442 75.0306 19.9055C76.2595 22.1236 76.9666 24.6294 76.9666 27.2898C76.9666 36.24 69.113 43.5215 59.4596 43.5215ZM56.4428 27.1258C56.4428 29.5311 54.3322 31.488 51.7378 31.488C50.846 31.488 50.0202 31.2438 49.3088 30.8426C47.9506 30.0767 47.0328 28.7042 47.0328 27.1258C47.0328 24.7204 49.1435 22.7635 51.7378 22.7635C53.6255 22.7635 55.246 23.8057 55.9948 25.2967C56.275 25.8549 56.4428 26.4706 56.4428 27.1258ZM63.0136 26.8091C63.0136 24.4037 65.1242 22.4469 67.7186 22.4469C70.3129 22.4469 72.4236 24.4037 72.4236 26.8091C72.4236 29.2145 70.3129 31.1713 67.7186 31.1713C65.1242 31.1713 63.0136 29.2145 63.0136 26.8091Z" fill="black"/>
<path d="M115.906 93.3511H95.3465C99.5872 91.5699 102.543 87.6205 102.543 83.0232V83.0231C102.543 81.1359 102.035 79.2785 101.065 77.6193L88.5718 56.2443C85.5113 51.0079 79.6034 47.7461 73.1796 47.7461H70.5823C69.4215 47.7461 68.3083 48.1736 67.4875 48.9346L64.6072 51.6051C62.0434 53.9821 57.8866 53.9821 55.3228 51.6051L52.4425 48.9346C51.6217 48.1736 50.5085 47.7461 49.3477 47.7461H46.2768C39.8529 47.7461 33.945 51.0079 30.8845 56.2443L18.3914 77.6193C17.4216 79.2785 16.9137 81.1359 16.9137 83.0231V83.0232C16.9137 87.6205 19.8692 91.5699 24.1099 93.3511H1.09419C0.489926 93.3511 0 93.8049 0 94.3656C0 94.9263 0.489926 95.3801 1.09419 95.3801H57.4033H59.134H115.906C116.51 95.3801 117 94.9263 117 94.3656C117 93.8049 116.51 93.3511 115.906 93.3511ZM72.9104 79.8925L85.0901 76.6459C85.673 76.4924 86.2778 76.8025 86.444 77.3404C86.6112 77.8794 86.2757 78.4411 85.6949 78.5956L73.5151 81.8422C73.4142 81.8689 73.3121 81.8818 73.2122 81.8818C72.7367 81.8818 72.2991 81.5925 72.1613 81.1477C71.9941 80.6087 72.3296 80.047 72.9104 79.8925ZM37.5229 79.3555C36.9288 79.2525 36.5383 78.7215 36.6499 78.1706C36.7626 77.6208 37.3349 77.2602 37.9279 77.3622L58.2684 80.9171V80.8673L66.629 82.2418L66.2877 82.1383L67.0414 82.2622C68.4388 82.4922 69.7677 82.9376 70.9919 83.5642L70.3154 83.3592C73.9937 85.0262 76.764 88.1454 77.7414 91.957C77.8696 92.4568 77.7713 92.9437 77.5275 93.3511H59.3628H58.2684H57.1745V82.7903L37.5229 79.3555Z" fill="black"/>
<path d="M45.5648 97.2881H27.0726H27.0277C26.6419 97.2881 26.2845 97.4763 26.0874 97.7844L19.6259 107.929C19.4245 108.242 19.4207 108.632 19.6152 108.949C19.8097 109.266 20.173 109.462 20.5662 109.462H33.822H41.959H42.0252C42.4975 109.462 42.9169 109.18 43.0644 108.764L46.6039 98.6196C46.714 98.3105 46.6568 97.9717 46.4511 97.7081C46.2454 97.4446 45.9158 97.2881 45.5648 97.2881ZM24.9191 103.645C30.2287 103.51 32.8195 100.595 33.6972 99.317H44.0522L42.7684 102.929C36.1408 103.166 33.8193 106.013 33.0806 107.433H22.4901L24.9191 103.645Z" fill="black"/>
<path d="M100.952 104.389C101.352 104.389 101.72 104.187 101.912 103.861C102.104 103.536 102.089 103.14 101.874 102.828L98.3699 97.7557C98.1685 97.4644 97.8212 97.2881 97.4483 97.2881H78.9561C78.6019 97.2881 78.2696 97.4466 78.0644 97.7151C77.8593 97.9826 77.8064 98.3253 77.9228 98.6354L79.8254 103.708C79.9782 104.116 80.3928 104.389 80.8587 104.389H100.952ZM88.0441 102.36L97.1502 99.7518L98.9518 102.36H88.0441ZM91.2571 99.317L81.5393 102.101L80.4954 99.317H91.2571Z" fill="black"/>
<path d="M103.577 106.887C103.376 106.595 103.028 106.419 102.655 106.419H81.8204C81.4662 106.419 81.1338 106.577 80.9287 106.846C80.7235 107.113 80.6706 107.456 80.7871 107.766L82.6891 112.839C82.8419 113.247 83.2565 113.52 83.7224 113.52H106.159C106.559 113.52 106.926 113.318 107.119 112.992C107.31 112.667 107.295 112.271 107.08 111.959L103.577 106.887ZM84.5003 111.491L83.3591 108.448H102.057L104.159 111.491H84.5003Z" fill="black"/>
<path d="M70.62 98.1242C70.5265 97.6398 70.0729 97.2881 69.5429 97.2881H69.4846H62.3981H55.1763C54.6746 97.2881 54.2376 97.6041 54.1153 98.0549L50.2589 112.258C50.1766 112.561 50.2498 112.883 50.4571 113.129C50.6644 113.375 50.9828 113.52 51.32 113.52H73.4767C73.8154 113.52 74.1355 113.374 74.3428 113.125C74.5495 112.877 74.6211 112.554 74.5356 112.25L70.62 98.1242ZM56.029 99.317H61.3643C61.5154 100.676 61.9835 101.765 62.7597 102.576L53.0945 110.125L56.029 99.317ZM54.7411 111.491L64.6233 103.773C65.4409 104.072 66.311 104.189 67.1349 104.189C68.2334 104.189 69.2342 104.002 69.9097 103.838L72.0609 111.491H54.7411Z" fill="black"/>
</svg>
